{"version": "0.6.4", "modules": [{"plugin": "StellareModular-Link", "version": "1.1.0", "model": "Link2", "params": [{"paramId": 0, "value": 0.0, "toggle": 0}, {"paramId": 1, "value": 0.0, "toggle": 0}, {"paramId": 2, "value": 4.0, "toggle": 0}, {"paramId": 3, "value": 0.0, "toggle": 0}], "data": {"enable_start_stop": false}, "sumPolyInputs": false, "pos": [0, 0], "id": 3}, {"plugin": "HolonicSystems-Free", "version": "2.0.7", "model": "HolonicSystems-HolonicSource", "params": [{"paramId": 0, "value": 1.0, "toggle": 0}, {"paramId": 1, "value": 1.0, "toggle": 0}, {"paramId": 2, "value": 1.0, "toggle": 0}, {"paramId": 3, "value": 1.0, "toggle": 0}, {"paramId": 4, "value": 1.0, "toggle": 0}, {"paramId": 5, "value": 1.0, "toggle": 0}, {"paramId": 6, "value": 1.0, "toggle": 0}, {"paramId": 7, "value": 1.0, "toggle": 0}, {"paramId": 8, "value": 0.80000001192092896, "toggle": 0}, {"paramId": 9, "value": 0.80000001192092896, "toggle": 0}, {"paramId": 10, "value": 0.80000001192092896, "toggle": 0}, {"paramId": 11, "value": 1.0, "toggle": 0}, {"paramId": 12, "value": 1.0, "toggle": 0}, {"paramId": 13, "value": 1.0, "toggle": 0}, {"paramId": 14, "value": 1.0, "toggle": 0}, {"paramId": 15, "value": 1.0, "toggle": 0}, {"paramId": 16, "value": 0.0, "toggle": 0}, {"paramId": 17, "value": 1.0, "toggle": 0}, {"paramId": 18, "value": 0.0, "toggle": 0}, {"paramId": 19, "value": 0.0, "toggle": 0}, {"paramId": 20, "value": 0.0, "toggle": 0}, {"paramId": 21, "value": 0.0, "toggle": 0}, {"paramId": 22, "value": 0.0, "toggle": 0}, {"paramId": 23, "value": 0.0, "toggle": 0}, {"paramId": 24, "value": 0.0, "toggle": 0}, {"paramId": 25, "value": 0.0, "toggle": 0}], "sumPolyInputs": false, "pos": [24, 0], "id": 4}, {"plugin": "HolonicSystems-Free", "version": "2.0.7", "model": "HolonicSystems-Pantry", "params": [{"paramId": 0, "value": 0.0, "toggle": 0}, {"paramId": 1, "value": 0.0, "toggle": 0}, {"paramId": 2, "value": 0.0, "toggle": 0}, {"paramId": 3, "value": 0.0, "toggle": 0}, {"paramId": 4, "value": 0.0, "toggle": 0}, {"paramId": 5, "value": 0.0, "toggle": 0}, {"paramId": 6, "value": 16.0, "toggle": 0}, {"paramId": 7, "value": 16.0, "toggle": 0}, {"paramId": 8, "value": 0.0, "toggle": 0}, {"paramId": 9, "value": 0.0, "toggle": 0}], "sumPolyInputs": false, "pos": [48, 0], "id": 5}, {"plugin": "HolonicSystems-Free", "version": "2.0.7", "model": "HolonicSystems-SwissCheeseKnife", "params": [{"paramId": 0, "value": 0.27449962496757507, "toggle": 0}, {"paramId": 1, "value": 0.74950021505355835, "toggle": 0}, {"paramId": 2, "value": 0.6819995641708374, "toggle": 0}, {"paramId": 3, "value": 0.51249969005584717, "toggle": 0}, {"paramId": 4, "value": 1.0, "toggle": 0}, {"paramId": 5, "value": 1.0, "toggle": 0}, {"paramId": 6, "value": 1.0, "toggle": 0}, {"paramId": 7, "value": 1.0, "toggle": 0}, {"paramId": 8, "value": 1.0, "toggle": 0}, {"paramId": 9, "value": 1.0, "toggle": 0}, {"paramId": 10, "value": 1.0, "toggle": 0}, {"paramId": 11, "value": 1.0, "toggle": 0}, {"paramId": 12, "value": 0.0, "toggle": 0}, {"paramId": 13, "value": 0.0, "toggle": 0}, {"paramId": 14, "value": 0.0, "toggle": 0}, {"paramId": 15, "value": 0.0, "toggle": 0}, {"paramId": 16, "value": 0.49050027132034302, "toggle": 0}, {"paramId": 17, "value": 0.0, "toggle": 0}, {"paramId": 18, "value": 0.0, "toggle": 0}, {"paramId": 19, "value": 0.0, "toggle": 0}, {"paramId": 20, "value": 0.5, "toggle": 0}, {"paramId": 21, "value": 0.5, "toggle": 0}, {"paramId": 22, "value": 0.5, "toggle": 0}, {"paramId": 23, "value": 0.5, "toggle": 0}, {"paramId": 24, "value": 0.5, "toggle": 0}, {"paramId": 25, "value": 0.5, "toggle": 0}, {"paramId": 26, "value": 0.5, "toggle": 0}, {"paramId": 27, "value": 0.46399992704391479, "toggle": 0}, {"paramId": 28, "value": 0.0, "toggle": 0}, {"paramId": 29, "value": 0.0, "toggle": 0}, {"paramId": 30, "value": 0.0, "toggle": 0}, {"paramId": 31, "value": 1.6049998998641968, "toggle": 0}, {"paramId": 32, "value": 1.0, "toggle": 0}, {"paramId": 33, "value": 1.0, "toggle": 0}, {"paramId": 34, "value": 1.0, "toggle": 0}, {"paramId": 35, "value": 1.0, "toggle": 0}], "sumPolyInputs": false, "pos": [64, 0], "id": 6}, {"plugin": "HolonicSystems-Free", "version": "2.0.7", "model": "HolonicSystems-Pantry", "params": [{"paramId": 0, "value": 0.0, "toggle": 0}, {"paramId": 1, "value": 0.0, "toggle": 0}, {"paramId": 2, "value": 0.0, "toggle": 0}, {"paramId": 3, "value": 0.0, "toggle": 0}, {"paramId": 4, "value": 0.0, "toggle": 0}, {"paramId": 5, "value": 0.0, "toggle": 0}, {"paramId": 6, "value": 16.0, "toggle": 0}, {"paramId": 7, "value": 16.0, "toggle": 0}, {"paramId": 8, "value": 0.0, "toggle": 0}, {"paramId": 9, "value": 0.0, "toggle": 0}], "sumPolyInputs": false, "pos": [56, 0], "id": 7}, {"plugin": "Core", "version": "0.6.4", "model": "Notes", "params": [], "sumPolyInputs": false, "width": 90.0, "text": "Attenuators\n\n\nNote\n\n\n\n\nResonance\n\n\n\n\n\nModulation\n\n\n\n\nFilter\n\n\n", "pos": [80, 0], "id": 8}, {"plugin": "HolonicSystems-Free", "version": "2.0.7", "model": "HolonicSystems-HolonicSource", "params": [{"paramId": 0, "value": 1.0, "toggle": 0}, {"paramId": 1, "value": 1.0, "toggle": 0}, {"paramId": 2, "value": 1.0, "toggle": 0}, {"paramId": 3, "value": 1.0, "toggle": 0}, {"paramId": 4, "value": 1.0, "toggle": 0}, {"paramId": 5, "value": 1.0, "toggle": 0}, {"paramId": 6, "value": 1.0, "toggle": 0}, {"paramId": 7, "value": 1.0, "toggle": 0}, {"paramId": 8, "value": 0.80000001192092896, "toggle": 0}, {"paramId": 9, "value": 0.80000001192092896, "toggle": 0}, {"paramId": 10, "value": 0.80000001192092896, "toggle": 0}, {"paramId": 11, "value": 0.80000001192092896, "toggle": 0}, {"paramId": 12, "value": 0.80000001192092896, "toggle": 0}, {"paramId": 13, "value": 0.80000001192092896, "toggle": 0}, {"paramId": 14, "value": 0.80000001192092896, "toggle": 0}, {"paramId": 15, "value": 1.0, "toggle": 0}, {"paramId": 16, "value": 1.0, "toggle": 0}, {"paramId": 17, "value": 1.0, "toggle": 0}, {"paramId": 18, "value": 0.0, "toggle": 0}, {"paramId": 19, "value": 0.0, "toggle": 0}, {"paramId": 20, "value": 0.0, "toggle": 0}, {"paramId": 21, "value": 0.0, "toggle": 0}, {"paramId": 22, "value": 0.0, "toggle": 0}, {"paramId": 23, "value": 0.0, "toggle": 0}, {"paramId": 24, "value": 0.0, "toggle": 0}, {"paramId": 25, "value": 0.0, "toggle": 0}], "sumPolyInputs": false, "pos": [34, 0], "id": 9}, {"plugin": "Core", "version": "0.6.4", "model": "Notes", "params": [], "sumPolyInputs": false, "width": 60.0, "text": "\n\n\n\n\n\n\n\n\n\n\n\n\n\n\n\n\n\n\n\nScreen\nDown\nReset\n", "pos": [44, 0], "id": 10}, {"plugin": "HolonicSystems-Free", "version": "2.0.7", "model": "HolonicSystems-LazySusanQuantiser", "params": [{"paramId": 0, "value": 0.0, "toggle": 0}, {"paramId": 1, "value": 1.0, "toggle": 0}, {"paramId": 2, "value": 1.0, "toggle": 0}, {"paramId": 3, "value": 0.0, "toggle": 0}, {"paramId": 4, "value": 0.0, "toggle": 0}, {"paramId": 5, "value": 0.0, "toggle": 0}, {"paramId": 6, "value": 0.0, "toggle": 0}, {"paramId": 7, "value": 0.0, "toggle": 0}, {"paramId": 8, "value": 0.0, "toggle": 0}, {"paramId": 9, "value": 0.0, "toggle": 0}, {"paramId": 10, "value": 0.0, "toggle": 0}, {"paramId": 11, "value": 0.0, "toggle": 0}, {"paramId": 12, "value": 0.0, "toggle": 0}, {"paramId": 13, "value": 0.0, "toggle": 0}, {"paramId": 14, "value": 0.0, "toggle": 0}, {"paramId": 15, "value": 0.0, "toggle": 0}], "data": {"scales": [true, false, true, false, true, true, false, true, false, true, false, true, true, false, true, true, false, true, false, true, false, true, true, false, true, true, false, true, false, true, false, true, true, false, true, false, true, false, true, false, true, false, true, true, false, true, false, true, true, false, true, false, true, true, false, true, false, true, true, false, true, false, true, true, false, true, false, true, true, false, true, false, true, true, false, true, false, true, true, false, true, false, true, false]}, "sumPolyInputs": false, "pos": [73, 1], "id": 11}, {"plugin": "Core", "version": "0.6.4", "model": "MIDICCInterfaceOut", "params": [{"paramId": 0, "value": 0.0}], "data": {"ccs": [71, 1, 74, 3, 4, 5, 6, 7, 8, 9, 10, 11], "midi": {"deviceName": "Holon", "channel": 0}, "sendZeroes": false}, "sumPolyInputs": false, "pos": [95, 1], "id": 12}, {"plugin": "Core", "version": "0.6.4", "model": "MIDIBasicInterfaceOut", "params": [], "data": {"midi": {"deviceName": "Holon", "channel": 0}}, "sumPolyInputs": false, "pos": [87, 1], "id": 13}, {"plugin": "Bogaudio", "version": "1.1.35", "model": "Bogaudio-AD", "params": [{"paramId": 0, "value": 0.0, "toggle": 0}, {"paramId": 1, "value": 0.11672994494438171, "toggle": 0}, {"paramId": 2, "value": 0.0, "toggle": 0}, {"paramId": 3, "value": 1.0, "toggle": 0}, {"paramId": 4, "value": 1.0, "toggle": 0}], "data": {"invert": 1.0}, "sumPolyInputs": false, "pos": [81, 1], "id": 14}, {"plugin": "Core", "version": "0.6.4", "model": "Notes", "params": [], "sumPolyInputs": false, "width": 45.0, "text": "\n\n\n\n\n\n\n\nNote\nGate", "pos": [84, 1], "id": 15}, {"plugin": "Core", "version": "0.6.4", "model": "Notes", "params": [], "sumPolyInputs": false, "width": 75.0, "text": "\n\nMidi\nOutputs", "pos": [116, 0], "id": 16}, {"plugin": "AudibleInstruments", "version": "1.0.0", "model": "Braids", "params": [{"paramId": 0, "value": 0.0, "toggle": 0}, {"paramId": 1, "value": -2.0, "toggle": 0}, {"paramId": 2, "value": 0.33099982142448425, "toggle": 0}, {"paramId": 3, "value": 0.5, "toggle": 0}, {"paramId": 4, "value": 0.0, "toggle": 0}, {"paramId": 5, "value": 0.5, "toggle": 0}, {"paramId": 6, "value": 0.0, "toggle": 0}], "data": {"settings": [0, 0, 0, 0, 0, 0, 0, 0, 0, 0, 0, 0, 0, 0, 0, 0, 0, 0, 0, 0], "lowCpu": false}, "sumPolyInputs": false, "pos": [0, 1], "id": 17}, {"plugin": "squinkylabs-plug1", "version": "1.0.11", "model": "squinkylabs-filt", "params": [{"paramId": 0, "value": -2.4900012016296387, "toggle": 0}, {"paramId": 1, "value": 1.0, "toggle": 0}, {"paramId": 2, "value": 0.0, "toggle": 0}, {"paramId": 3, "value": -5.0, "toggle": 0}, {"paramId": 4, "value": 0.72600001096725464, "toggle": 0}, {"paramId": 5, "value": 0.0, "toggle": 0}, {"paramId": 6, "value": -5.0, "toggle": 0}, {"paramId": 7, "value": 0.72300004959106445, "toggle": 0}, {"paramId": 8, "value": 0.0, "toggle": 0}, {"paramId": 9, "value": 0.0, "toggle": 0}, {"paramId": 10, "value": 0.0, "toggle": 0}, {"paramId": 11, "value": 5.0, "toggle": 0}, {"paramId": 12, "value": 0.0, "toggle": 0}, {"paramId": 13, "value": 0.0, "toggle": 0}, {"paramId": 14, "value": 0.64399999380111694, "toggle": 0}, {"paramId": 15, "value": 0.0, "toggle": 0}], "sumPolyInputs": false, "pos": [16, 1], "id": 18}, {"plugin": "Core", "version": "0.6.4", "model": "AudioInterface", "params": [], "sumPolyInputs": true, "pos": [51, 1], "id": 19}, {"plugin": "Bogaudio", "version": "1.1.35", "model": "Bogaudio-VCAmp", "params": [{"paramId": 0, "value": 0.88133299350738525, "toggle": 0}], "data": {}, "sumPolyInputs": false, "pos": [48, 1], "id": 20}, {"plugin": "Befaco", "version": "1.0.0", "model": "Rampage", "params": [{"paramId": 0, "value": 1.0, "toggle": 0}, {"paramId": 1, "value": 1.0, "toggle": 0}, {"paramId": 2, "value": 0.0, "toggle": 0}, {"paramId": 3, "value": 0.0, "toggle": 0}, {"paramId": 4, "value": 0.0, "toggle": 0}, {"paramId": 5, "value": 0.0, "toggle": 0}, {"paramId": 6, "value": 0.0, "toggle": 0}, {"paramId": 7, "value": 0.0, "toggle": 0}, {"paramId": 8, "value": 0.85360085964202881, "toggle": 0}, {"paramId": 9, "value": 0.0, "toggle": 0}, {"paramId": 10, "value": 0.0, "toggle": 0}, {"paramId": 11, "value": 0.0, "toggle": 0}, {"paramId": 12, "value": 0.5, "toggle": 0}], "sumPolyInputs": false, "pos": [30, 1], "id": 21}, {"plugin": "ImpromptuModular", "version": "0.6.17", "model": "Clocked", "params": [{"paramId": 0, "value": 120.0, "toggle": 0}, {"paramId": 1, "value": 0.0, "toggle": 0}, {"paramId": 2, "value": 0.0, "toggle": 0}, {"paramId": 3, "value": 5.0, "toggle": 0}, {"paramId": 4, "value": 0.0, "toggle": 0}, {"paramId": 5, "value": 0.0, "toggle": 0}, {"paramId": 6, "value": 0.0, "toggle": 0}, {"paramId": 7, "value": 0.0, "toggle": 0}, {"paramId": 8, "value": 0.5, "toggle": 0}, {"paramId": 9, "value": 0.5, "toggle": 0}, {"paramId": 10, "value": 0.5, "toggle": 0}, {"paramId": 11, "value": 0.15350018441677094, "toggle": 0}, {"paramId": 12, "value": 0.0, "toggle": 0}, {"paramId": 13, "value": 0.0, "toggle": 0}, {"paramId": 14, "value": 0.0}, {"paramId": 15, "value": 0.0, "toggle": 0}, {"paramId": 16, "value": 0.0, "toggle": 0}, {"paramId": 17, "value": 0.0, "toggle": 0}, {"paramId": 18, "value": 0.0, "toggle": 0}, {"paramId": 19, "value": 0.0, "toggle": 0}], "data": {"running": true, "panelTheme": 0, "expansion": 0, "displayDelayNoteMode": true, "bpmDetectionMode": false, "emitResetOnStopRun": false, "ppqn": 4, "resetClockOutputsHigh": true, "momentaryRunInput": false}, "sumPolyInputs": false, "pos": [4, 0], "id": 22}, {"plugin": "HolonicSystems-Free", "version": "2.0.7", "model": "HolonicSystems-SwissCheeseKnife", "params": [{"paramId": 0, "value": 0.76149952411651611, "toggle": 0}, {"paramId": 1, "value": 1.0, "toggle": 0}, {"paramId": 2, "value": 1.0, "toggle": 0}, {"paramId": 3, "value": 1.0, "toggle": 0}, {"paramId": 4, "value": 1.0, "toggle": 0}, {"paramId": 5, "value": 1.0, "toggle": 0}, {"paramId": 6, "value": 1.0, "toggle": 0}, {"paramId": 7, "value": 1.0, "toggle": 0}, {"paramId": 8, "value": 1.0, "toggle": 0}, {"paramId": 9, "value": 1.0, "toggle": 0}, {"paramId": 10, "value": 1.0, "toggle": 0}, {"paramId": 11, "value": 1.0, "toggle": 0}, {"paramId": 12, "value": 0.0, "toggle": 0}, {"paramId": 13, "value": 0.0, "toggle": 0}, {"paramId": 14, "value": 0.0, "toggle": 0}, {"paramId": 15, "value": 0.0, "toggle": 0}, {"paramId": 16, "value": 0.0, "toggle": 0}, {"paramId": 17, "value": 0.0, "toggle": 0}, {"paramId": 18, "value": 0.0, "toggle": 0}, {"paramId": 19, "value": 0.0, "toggle": 0}, {"paramId": 20, "value": 0.5, "toggle": 0}, {"paramId": 21, "value": 0.5, "toggle": 0}, {"paramId": 22, "value": 0.5, "toggle": 0}, {"paramId": 23, "value": 0.5, "toggle": 0}, {"paramId": 24, "value": 0.5, "toggle": 0}, {"paramId": 25, "value": 0.5, "toggle": 0}, {"paramId": 26, "value": 0.5, "toggle": 0}, {"paramId": 27, "value": 0.5, "toggle": 0}, {"paramId": 28, "value": 0.0, "toggle": 0}, {"paramId": 29, "value": 0.0, "toggle": 0}, {"paramId": 30, "value": 0.0, "toggle": 0}, {"paramId": 31, "value": 0.0, "toggle": 0}, {"paramId": 32, "value": 0.0, "toggle": 0}, {"paramId": 33, "value": 1.0, "toggle": 0}, {"paramId": 34, "value": 1.0, "toggle": 0}, {"paramId": 35, "value": 1.0, "toggle": 0}], "sumPolyInputs": false, "pos": [54, 1], "id": 23}, {"plugin": "Bogaudio", "version": "1.1.35", "model": "Bogaudio-LLFO", "params": [{"paramId": 0, "value": 4.6020007133483887, "toggle": 0}, {"paramId": 1, "value": 0.0, "toggle": 0}, {"paramId": 2, "value": 0.0, "toggle": 0}, {"paramId": 3, "value": 0.0, "toggle": 0}, {"paramId": 4, "value": 0.31899991631507874, "toggle": 0}], "data": {}, "sumPolyInputs": false, "pos": [70, 1], "id": 24}], "wires": [{"colorIndex": 0, "outputModuleId": 1, "outputId": 0, "inputModuleId": 2, "inputId": 12}, {"colorIndex": 1, "outputModuleId": 19, "outputId": 3, "inputModuleId": 2, "inputId": 0}, {"colorIndex": 1, "outputModuleId": 19, "outputId": 3, "inputModuleId": 4, "inputId": 0}, {"colorIndex": 2, "outputModuleId": 1, "outputId": 1, "inputModuleId": 2, "inputId": 13}, {"colorIndex": 5, "outputModuleId": 1, "outputId": 2, "inputModuleId": 4, "inputId": 12}, {"colorIndex": 3, "outputModuleId": 1, "outputId": 6, "inputModuleId": 2, "inputId": 4}, {"colorIndex": 3, "outputModuleId": 1, "outputId": 6, "inputModuleId": 4, "inputId": 4}, {"colorIndex": 3, "outputModuleId": 1, "outputId": 6, "inputModuleId": 2, "inputId": 5}, {"colorIndex": 3, "outputModuleId": 1, "outputId": 6, "inputModuleId": 4, "inputId": 5}, {"colorIndex": 3, "outputModuleId": 1, "outputId": 6, "inputModuleId": 4, "inputId": 13}, {"colorIndex": 4, "outputModuleId": 6, "outputId": 7, "inputModuleId": 4, "inputId": 6}, {"colorIndex": 4, "outputModuleId": 6, "outputId": 7, "inputModuleId": 2, "inputId": 6}, {"colorIndex": 4, "outputModuleId": 6, "outputId": 7, "inputModuleId": 2, "inputId": 7}, {"colorIndex": 4, "outputModuleId": 6, "outputId": 7, "inputModuleId": 4, "inputId": 7}, {"colorIndex": 0, "outputModuleId": 2, "outputId": 0, "inputModuleId": 3, "inputId": 0}, {"colorIndex": 2, "outputModuleId": 2, "outputId": 1, "inputModuleId": 3, "inputId": 1}, {"colorIndex": 5, "outputModuleId": 4, "outputId": 0, "inputModuleId": 3, "inputId": 2}, {"colorIndex": 3, "outputModuleId": 4, "outputId": 1, "inputModuleId": 3, "inputId": 3}, {"colorIndex": 0, "outputModuleId": 3, "outputId": 0, "inputModuleId": 8, "inputId": 0}, {"colorIndex": 2, "outputModuleId": 3, "outputId": 1, "inputModuleId": 9, "inputId": 0}, {"colorIndex": 5, "outputModuleId": 3, "outputId": 2, "inputModuleId": 9, "inputId": 1}, {"colorIndex": 3, "outputModuleId": 3, "outputId": 3, "inputModuleId": 9, "inputId": 2}, {"colorIndex": 1, "outputModuleId": 19, "outputId": 3, "inputModuleId": 8, "inputId": 4}, {"colorIndex": 1, "outputModuleId": 19, "outputId": 3, "inputModuleId": 3, "inputId": 8}, {"colorIndex": 1, "outputModuleId": 19, "outputId": 3, "inputModuleId": 3, "inputId": 9}, {"colorIndex": 1, "outputModuleId": 19, "outputId": 3, "inputModuleId": 3, "inputId": 10}, {"colorIndex": 1, "outputModuleId": 19, "outputId": 3, "inputModuleId": 3, "inputId": 11}, {"colorIndex": 0, "outputModuleId": 8, "outputId": 0, "inputModuleId": 10, "inputId": 0}, {"colorIndex": 1, "outputModuleId": 8, "outputId": 4, "inputModuleId": 11, "inputId": 0}, {"colorIndex": 1, "outputModuleId": 11, "outputId": 0, "inputModuleId": 10, "inputId": 1}, {"colorIndex": 0, "outputModuleId": 14, "outputId": 0, "inputModuleId": 15, "inputId": 0}, {"colorIndex": 0, "outputModuleId": 15, "outputId": 0, "inputModuleId": 17, "inputId": 1}, {"colorIndex": 0, "outputModuleId": 17, "outputId": 0, "inputModuleId": 16, "inputId": 0}, {"colorIndex": 0, "outputModuleId": 17, "outputId": 0, "inputModuleId": 16, "inputId": 1}, {"colorIndex": 0, "outputModuleId": 8, "outputId": 0, "inputModuleId": 14, "inputId": 1}, {"colorIndex": 1, "outputModuleId": 8, "outputId": 4, "inputModuleId": 18, "inputId": 2}, {"colorIndex": 1, "outputModuleId": 18, "outputId": 6, "inputModuleId": 17, "inputId": 0}, {"colorIndex": 1, "outputModuleId": 0, "outputId": 3, "inputModuleId": 19, "inputId": 6}, {"colorIndex": 3, "outputModuleId": 3, "outputId": 3, "inputModuleId": 15, "inputId": 2}, {"colorIndex": 2, "outputModuleId": 3, "outputId": 1, "inputModuleId": 15, "inputId": 4}, {"colorIndex": 5, "outputModuleId": 3, "outputId": 2, "inputModuleId": 20, "inputId": 4}, {"colorIndex": 5, "outputModuleId": 20, "outputId": 0, "inputModuleId": 14, "inputId": 2}, {"colorIndex": 5, "outputModuleId": 21, "outputId": 0, "inputModuleId": 20, "inputId": 0}, {"colorIndex": 5, "outputModuleId": 3, "outputId": 2, "inputModuleId": 18, "inputId": 6}], "transportModuleId": 0, "polyChannels": 1}